<svg width="17" height="21" viewBox="0 0 17 21" fill="none" xmlns="http://www.w3.org/2000/svg">
<path fill-rule="evenodd" clip-rule="evenodd" d="M14.1231 9.80625L8.73963 1.97587L7.05326 3.11587L12.4371 10.944L14.1233 9.804L14.1231 9.80625ZM12.1051 11.2237L3.87476 6.40819L2.83751 8.15062L11.0684 12.9645L12.1053 11.2217L12.1051 11.2237ZM10.9004 13.5384L1.67313 11.0769L1.14251 13.0312L10.3707 15.4912L10.9004 13.5367V13.5384ZM10.2728 16.1775L0.758133 15.3081L0.570633 17.3237L10.0857 18.1922L10.2728 16.1775ZM16.5001 9.33375L14.8656 0L12.8543 0.345937L14.4888 9.68156L16.5001 9.33562V9.33375ZM10.0431 20.7962L0.487384 20.8007L0.486633 18.777L10.042 18.7721L10.0431 20.7962V20.7962Z" fill="#FF810F"/>
</svg>
